{"title":"Protege 2007 720p BluRay HEVC 2CH x265","uid":15807533,"size":673287146,"categoryP":"video","categoryS":"hd___movies","magnet":"?xt=urn:btih:3f33552c550fbe5af62c756700dff30774cbbae0&amp;dn=Protege+2007+720p+BluRay+HEVC+2CH+x265&amp;tr=udp%3A%2F%2Ftracker.leechers-paradise.org%3A6969&amp;tr=udp%3A%2F%2Fzer0day.ch%3A1337&amp;tr=udp%3A%2F%2Fopen.demonii.com%3A1337&amp;tr=udp%3A%2F%2Ftracker.coppersurfer.tk%3A6969&amp;tr=udp%3A%2F%2Fexodus.desync.com%3A6969","seeders":3,"leechers":3,"uploader":"nayhtut","files":1,"time":1473578728,"description":"[Screenshots Gallery Link]\r\n\r\n[http://postimg.org/gallery/fczgaauo]\r\n\r\nSource: Protege 2007 720p BluRay DTS x264-CtrlHD (6.6 GB)\r\n\r\nComplete name                      : Protege.2007.720p.BluRay.HEVC.2CH.x265.mkv\r\nFormat                                   : Matroska\r\nFormat version                           : Version 4 / Version 2\r\nFile size                                : 642 MiB\r\nDuration                                 : 1h 48mn\r\nOverall bit rate                         : 825 Kbps\r\nWriting application                      : Lavf57.25.100\r\nWriting library                          : Lavf57.25.100\r\n\r\nVideo\r\n\r\nID                                       : 1\r\nFormat                                   : V_MPEGH/ISO/HEVC\r\nCodec ID                                 : V_MPEGH/ISO/HEVC\r\nDuration                                 : 1h 48mn\r\nBit rate                                 : 616 Kbps\r\nWidth                                    : 1 280 pixels\r\nHeight                                   : 544 pixels\r\nDisplay aspect ratio                     : 2.35:1\r\nFrame rate                               : 25.000 fps\r\nBits/(Pixel*Frame)                       : 0.035\r\nStream size                              : 480 MiB (75%)\r\nWriting library                          : Lavc57.48.101 libx265\r\nLanguage                                 : English\r\nDefault                                  : Yes\r\nForced                                   : No\r\nDURATION                                 : 01:48:50.811000000\r\n\r\nAudio\r\n\r\nID                                       : 2\r\nFormat                                   : AC-3\r\nFormat/Info                              : Audio Coding 3\r\nMode extension                           : CM (complete main)\r\nFormat settings, Endianness              : Big\r\nCodec ID                                 : A_AC3\r\nDuration                                 : 1h 48mn\r\nBit rate mode                            : Constant\r\nBit rate                                 : 192 Kbps\r\nChannel(s)                               : 2 channels\r\nChannel positions                        : Front: L R\r\nSampling rate                            : 48.0 KHz\r\nBit depth                                : 16 bits\r\nCompression mode                         : Lossy\r\nStream size                              : 149 MiB (23%)\r\nWriting library                          : Lavc57.24.102 ac3\r\nLanguage                                 : Chinese\r\nDefault                                  : Yes\r\nForced                                   : No\r\nDURATION                                 : 01:48:50.943000000\r\n\r\nText\r\n\r\nID                                       : 3\r\nFormat                                   : ASS\r\nCodec ID                                 : S_TEXT/ASS\r\nCodec ID/Info                            : Advanced Sub Station Alpha\r\nCompression mode                         : Lossless\r\nWriting library                          : Lavc57.48.101 ssa\r\nLanguage                                 : English\r\nDefault                                  : Yes","torrent":{"xt":"urn:btih:3f33552c550fbe5af62c756700dff30774cbbae0","amp;dn":"Protege+2007+720p+BluRay+HEVC+2CH+x265","amp;tr":["udp%3A%2F%2Ftracker.leechers-paradise.org%3A6969","udp%3A%2F%2Fzer0day.ch%3A1337","udp%3A%2F%2Fopen.demonii.com%3A1337","udp%3A%2F%2Ftracker.coppersurfer.tk%3A6969","udp%3A%2F%2Fexodus.desync.com%3A6969"],"infoHash":"3f33552c550fbe5af62c756700dff30774cbbae0","infoHashBuffer":{"type":"Buffer","data":[63,51,85,44,85,15,190,90,246,44,117,103,0,223,243,7,116,203,186,224]},"announce":[],"urlList":[]}}